<svg width="64" height="64" viewBox="0 0 64 64" fill="none" xmlns="http://www.w3.org/2000/svg">
<path d="M36.9685 0C38.1832 0 38.9677 1.76163 39.322 5.28489L39.6257 9.09001C39.6257 11.9556 39.0689 19.4249 37.9554 31.4979H38.411V31.7093L38.7146 31.4979H39.322L48.2045 32.1321H48.8119L52.6079 31.0751H53.1393C53.9491 31.5449 54.5058 32.2026 54.8095 33.0482C54.8095 34.8333 52.6585 35.9372 48.3564 36.36L40.6126 35.6554H39.1701L35.526 36.5714C34.1595 36.1017 33.4762 35.35 33.4762 34.3165L35.0705 10.147V9.09001L34.615 2.04349C34.615 0.869071 35.3995 0.187908 36.9685 0Z" fill="#66FF02"/>
<path d="M20.5761 0C26.0335 0 29.2036 4.02826 30.0864 12.0848C30.0864 18.7437 28.5616 22.9364 25.5118 24.6628H24.7895C22.4621 24.4984 21.2984 23.6352 21.2984 22.0732L21.7799 12.8247V8.26204L21.0576 7.39885H19.8538C17.2856 7.39885 14.276 14.7155 10.825 29.3487L10.1027 38.5973V41.3102C10.1027 49.86 13.8346 54.8748 21.2984 56.3545H26.3545C34.7011 56.3545 44.8134 50.8465 56.6913 39.8304H57.1729C59.3398 39.8304 60.5837 41.228 60.9048 44.0231C59.0589 48.9557 56.892 51.422 54.404 51.422C42.9274 59.8073 32.6145 64 23.4653 64C14.3161 64 7.85549 58.8619 4.08346 48.5857L3 39.8304V38.2274C3 25.4849 6.49114 13.7701 13.4734 3.08286C15.7206 1.02762 18.0881 0 20.5761 0Z" fill="#66FF02"/>
</svg>
